<?xml version="1.0" encoding="utf-8"?>
<!-- Generator: Adobe Illustrator 16.0.0, SVG Export Plug-In . SVG Version: 6.00 Build 0)  -->
<!DOCTYPE svg PUBLIC "-//W3C//DTD SVG 1.1//EN" "http://www.w3.org/Graphics/SVG/1.1/DTD/svg11.dtd">
<svg version="1.1" id="Layer_1" xmlns="http://www.w3.org/2000/svg" xmlns:xlink="http://www.w3.org/1999/xlink" x="0px" y="0px"
	 width="60px" height="76.95px" viewBox="0 0 60 76.95" enable-background="new 0 0 60 76.95" xml:space="preserve">
<path fill="none" stroke="#F5F5F4" stroke-width="2" stroke-miterlimit="10" d="M10.41,7.35c5.24,0.87,10.6,0.23,15.89,0.37
	c5.59,0.15,11.47,0.04,16.75,2.65c1.25,0.62,1.87,1.72,2.27,3.26c0.37,1.43,0.42,2.95,0.49,4.44c0.08,1.67,0.23,3.35,0.26,5.02
	c0.07,3.62-0.47,7.3-0.75,10.89c-0.25,3.24-2.57,19.76-3.28,22.89c-0.46,2.02-0.13,4.15-0.4,6.21c-0.16,1.29-0.52,2.48-0.78,3.74
	c-0.21,1-0.43,1.98-0.67,2.96c-0.04,0.14-0.21,1.22-0.36,1.35c-0.09,0.08-0.12,0.08-0.24,0.09"/>
<path fill="none" stroke="#F5F5F4" stroke-width="2" stroke-miterlimit="10" d="M33.39,56.97c1.22,5.44,4.02,10.24,6.04,15.35
	c0.86-1.14,1.37-2.5,2.25-3.65c2.2-2.91,5.18-5.09,7.39-7.98c1.02-1.33,1.58-2.88,2.55-4.22c0.28-0.39,1.06-1,0.93-1.37"/>
</svg>
