<?xml version="1.0" encoding="utf-8"?>
<svg version="1.1" id="Layer_1" xmlns="http://www.w3.org/2000/svg" xmlns:xlink="http://www.w3.org/1999/xlink" x="0px" y="0px"
	 width="124px" height="124px" viewBox="0 0 124 124" enable-background="new 0 0 124 124" xml:space="preserve">
<g>
	<path fill="#6CC4A9" d="M63.61,59.61c3.12-1.24,5.92-2.98,8.4-5.22l-8.57-8.57c-1.29,1.38-2.83,2.44-4.64,3.18
		c-1.81,0.74-3.91,1.11-6.29,1.11c-2.05,0-3.92-0.35-5.61-1.04c-1.69-0.69-3.16-1.69-4.39-3c-1.24-1.31-2.21-2.87-2.89-4.68
		c-0.69-1.81-1.04-3.83-1.04-6.07c0-2.24,0.34-4.26,1.04-6.07c0.69-1.81,1.66-3.37,2.89-4.68c1.24-1.31,2.7-2.3,4.39-2.97
		c1.69-0.67,3.56-1,5.61-1c2.38,0,4.45,0.38,6.22,1.14c1.76,0.76,3.24,1.81,4.43,3.14l8.58-8.58c-2.43-2.24-5.24-3.99-8.43-5.25
		C60.09,9.8,56.5,9.17,52.5,9.17c-3.81,0-7.35,0.67-10.61,2c-3.26,1.33-6.12,3.17-8.57,5.5c-2.46,2.33-4.36,5.09-5.72,8.25
		c-1.36,3.17-2.04,6.63-2.04,10.4c0,3.72,0.68,7.17,2.04,10.36c1.36,3.19,3.26,5.97,5.72,8.33c2.45,2.36,5.32,4.19,8.61,5.5
		c3.29,1.31,6.86,1.97,10.72,1.97C56.83,61.47,60.49,60.85,63.61,59.61z"/>
	<polygon fill="#6CC4A9" points="89.23,64.17 72.04,90.24 54.78,64.17 45.56,64.17 45.56,114.83 58.28,114.83 58.28,88.92 
		67.86,103.4 76.15,103.4 85.79,88.9 85.79,114.83 98.44,114.83 98.44,64.17 	"/>
</g>
</svg>
