<?xml version="1.0" encoding="utf-8"?>
<!-- Generator: Adobe Illustrator 16.0.0, SVG Export Plug-In . SVG Version: 6.00 Build 0)  -->
<!DOCTYPE svg PUBLIC "-//W3C//DTD SVG 1.1//EN" "http://www.w3.org/Graphics/SVG/1.1/DTD/svg11.dtd">
<svg version="1.1" id="Layer_1" xmlns="http://www.w3.org/2000/svg" xmlns:xlink="http://www.w3.org/1999/xlink" x="0px" y="0px"
	 width="60px" height="60px" viewBox="0 0 60 60" enable-background="new 0 0 60 60" xml:space="preserve">
<path fill="none" stroke="#F5F5F4" stroke-width="2" stroke-miterlimit="10" d="M6.82,14.22c4.37-1.06,8.83-0.84,13.23-1.38
	c3.26-0.4,6.4-0.44,9.59,0.24c2.58,0.55,5.55,0.88,7.85,2.4c0.78,0.51,1.42,1.24,2.08,1.92c1.04,1.07,2.12,2.14,2.95,3.46
	c2.18,3.49,3.25,7.92,3.84,12.27c0.48,3.56,0.04,7-0.69,10.55c-0.21,1.04-0.48,2.23-1.13,3.02"/>
<path fill="none" stroke="#F5F5F4" stroke-width="2" stroke-miterlimit="10" d="M37.23,34.87c0.03,0.42,0.25,0.76,0.45,1.17
	c1.12,2.25,1.97,4.57,3.21,6.79c0.78,1.4,3.39,5.19,3.45,5.46c1.44-1.14,2.27-3.03,3.53-4.32c1.73-1.77,3.97-3.33,5.5-5.23
	c0.57-0.71,1.18-1.37,1.77-2.05c0.08-0.1,0.16-0.19,0.22-0.3"/>
</svg>
