<?xml version="1.0" encoding="utf-8"?>
<!-- Generator: Adobe Illustrator 16.0.0, SVG Export Plug-In . SVG Version: 6.00 Build 0)  -->
<!DOCTYPE svg PUBLIC "-//W3C//DTD SVG 1.1//EN" "http://www.w3.org/Graphics/SVG/1.1/DTD/svg11.dtd">
<svg version="1.1" id="Layer_1" xmlns="http://www.w3.org/2000/svg" xmlns:xlink="http://www.w3.org/1999/xlink" x="0px" y="0px"
	 width="300px" height="100px" viewBox="0 0 300 100" enable-background="new 0 0 300 100" xml:space="preserve">
<g>
	<path d="M23.68,48.91c3.43,0,6.42-0.49,8.97-1.48c2.55-0.98,4.84-2.36,6.89-4.14l-7.75-7.75c-1,1.04-2.19,1.83-3.56,2.37
		c-1.37,0.54-2.92,0.81-4.66,0.81c-1.54,0-2.96-0.26-4.25-0.78c-1.29-0.52-2.4-1.26-3.33-2.23c-0.93-0.96-1.65-2.13-2.17-3.5
		c-0.52-1.37-0.78-2.92-0.78-4.66c0-1.7,0.26-3.23,0.78-4.6c0.52-1.37,1.24-2.54,2.17-3.5s2.03-1.7,3.33-2.2
		c1.29-0.5,2.71-0.75,4.25-0.75c1.77,0,3.33,0.29,4.66,0.87c1.33,0.58,2.46,1.37,3.38,2.37l7.7-7.75c-1.97-1.77-4.28-3.16-6.94-4.17
		c-2.66-1-5.59-1.5-8.79-1.5c-3.16,0-6.1,0.53-8.8,1.59c-2.7,1.06-5.06,2.54-7.09,4.43c-2.03,1.89-3.61,4.13-4.74,6.71
		c-1.14,2.58-1.71,5.42-1.71,8.51c0,3.05,0.57,5.87,1.71,8.48c1.14,2.6,2.73,4.87,4.77,6.8c2.04,1.93,4.43,3.42,7.15,4.48
		C17.58,48.38,20.52,48.91,23.68,48.91z"/>
	<path d="M55.1,31.79h0.16l10.49,16.43h13.13L66.82,31.04c0.8-0.23,1.57-0.49,2.29-0.82c2.24-1.04,3.98-2.49,5.24-4.34
		c1.25-1.85,1.88-4.01,1.88-6.48s-0.62-4.63-1.85-6.48c-1.24-1.85-2.93-3.3-5.09-4.34c-2.16-1.04-4.67-1.56-7.52-1.56H55.1h-2.2
		h-9.37v41.2H55.1V31.79z M59.91,15.35c1.58,0,2.79,0.39,3.62,1.16c0.83,0.77,1.24,1.79,1.24,3.07s-0.42,2.3-1.24,3.07
		c-0.83,0.77-2.04,1.16-3.62,1.16h-4.8v-8.45H59.91z"/>
	<rect x="81.78" y="7.02" width="11.57" height="41.2"/>
	<path d="M126.65,46.69c2.14-1.02,3.81-2.45,5-4.28c1.2-1.83,1.79-3.94,1.79-6.34c0-3.32-1.16-6.04-3.47-8.16
		c-0.69-0.63-1.48-1.17-2.34-1.63c0.58-0.34,1.11-0.72,1.59-1.14c2.08-1.85,3.12-4.24,3.12-7.17c0-2.12-0.52-4-1.56-5.64
		c-1.04-1.64-2.5-2.93-4.37-3.88c-1.87-0.95-4.06-1.42-6.57-1.42h-8.33h-1.97h-9.37v41.2h9.37h1.97h7.64
		C122.01,48.22,124.51,47.71,126.65,46.69z M116.61,15.35c1.23,0,2.26,0.31,3.07,0.93c0.81,0.62,1.21,1.58,1.21,2.89
		c0,1.31-0.4,2.28-1.21,2.89c-0.81,0.62-1.83,0.93-3.07,0.93h-5.09v-7.64H116.61z M111.52,39.89v-8.91h5.61c1,0,1.86,0.17,2.57,0.52
		c0.71,0.35,1.27,0.86,1.68,1.53c0.41,0.68,0.61,1.48,0.61,2.4c0,1.39-0.44,2.48-1.33,3.27c-0.89,0.79-2.06,1.19-3.53,1.19H111.52z"
		/>
	<path d="M164.78,46.69c2.14-1.02,3.81-2.45,5.01-4.28c1.19-1.83,1.79-3.94,1.79-6.34c0-3.32-1.16-6.04-3.47-8.16
		c-0.69-0.63-1.48-1.17-2.34-1.63c0.58-0.34,1.11-0.72,1.59-1.14c2.08-1.85,3.12-4.24,3.12-7.17c0-2.12-0.52-4-1.56-5.64
		c-1.04-1.64-2.5-2.93-4.37-3.88c-1.87-0.95-4.06-1.42-6.57-1.42h-8.33h-1.97h-9.37v41.2h9.37h1.97h7.64
		C160.14,48.22,162.64,47.71,164.78,46.69z M154.74,15.35c1.23,0,2.26,0.31,3.07,0.93c0.81,0.62,1.22,1.58,1.22,2.89
		c0,1.31-0.41,2.28-1.22,2.89c-0.81,0.62-1.83,0.93-3.07,0.93h-5.09v-7.64H154.74z M149.65,39.89v-8.91h5.61
		c1,0,1.86,0.17,2.57,0.52c0.71,0.35,1.27,0.86,1.68,1.53c0.41,0.68,0.61,1.48,0.61,2.4c0,1.39-0.44,2.48-1.33,3.27
		c-0.89,0.79-2.06,1.19-3.53,1.19H149.65z"/>
	<path d="M202.05,41.27l2.28,6.94h12.04l-15.51-41.2h-11.8l-15.68,41.2h11.8l2.34-6.94H202.05z M190.56,32.25l4.31-12.78l4.2,12.78
		H190.56z"/>
	<path d="M236.62,33.17l10.33,0.31c-0.08,0.19-0.14,0.38-0.23,0.56c-0.75,1.5-1.84,2.66-3.27,3.47c-1.43,0.81-3.18,1.21-5.27,1.21
		c-2.16,0-4.05-0.46-5.67-1.39c-1.62-0.93-2.88-2.23-3.79-3.91c-0.91-1.68-1.36-3.64-1.36-5.87c0-2.24,0.49-4.19,1.48-5.84
		c0.98-1.66,2.3-2.94,3.96-3.85c1.66-0.91,3.51-1.36,5.55-1.36c2.16,0,4.01,0.41,5.56,1.22c1.54,0.81,3.03,2.04,4.46,3.7l7.81-7.81
		c-1.89-2.24-4.35-4.01-7.38-5.32c-3.03-1.31-6.45-1.97-10.27-1.97c-3.16,0-6.13,0.53-8.91,1.59c-2.78,1.06-5.22,2.55-7.32,4.46
		c-2.1,1.91-3.74,4.16-4.92,6.74c-1.18,2.58-1.76,5.42-1.76,8.51c0,3.05,0.56,5.86,1.68,8.45c1.12,2.58,2.69,4.84,4.72,6.77
		c2.03,1.93,4.4,3.42,7.12,4.48c2.72,1.06,5.68,1.59,8.88,1.59c4.28,0,8.03-0.91,11.25-2.72c3.22-1.81,5.73-4.46,7.52-7.93
		c1.79-3.47,2.69-7.68,2.69-12.61v-1.74h-22.86V33.17z"/>
	<polygon points="275.39,48.22 295.29,48.22 295.29,38.61 275.39,38.61 275.39,31.9 293.15,31.9 293.15,22.53 275.39,22.53 
		275.39,16.63 294.95,16.63 294.95,7.02 275.39,7.02 273.19,7.02 263.82,7.02 263.82,48.22 273.19,48.22 	"/>
	<polygon points="35.63,70.83 22.12,51.05 13.73,51.05 13.73,92.25 25.19,92.25 25.19,72.83 31.9,82.53 39.31,82.53 46.02,72.9 
		46.02,92.25 57.47,92.25 57.47,51.05 49.08,51.05 	"/>
	<path d="M100.58,56.31c-2.01-1.93-4.37-3.42-7.09-4.49c-2.72-1.06-5.7-1.59-8.94-1.59c-3.24,0-6.22,0.53-8.94,1.59
		c-2.72,1.06-5.08,2.56-7.09,4.49c-2.01,1.93-3.56,4.19-4.66,6.77c-1.1,2.58-1.65,5.42-1.65,8.51c0,3.05,0.56,5.88,1.68,8.51
		c1.12,2.62,2.69,4.9,4.72,6.83c2.03,1.93,4.4,3.43,7.12,4.51c2.72,1.08,5.7,1.62,8.94,1.62c3.2,0,6.15-0.53,8.85-1.59
		s5.05-2.57,7.06-4.51c2.01-1.95,3.56-4.22,4.66-6.83c1.1-2.6,1.65-5.43,1.65-8.48c0-3.08-0.55-5.93-1.65-8.53
		C104.14,60.51,102.59,58.24,100.58,56.31z M93.81,77.55c-0.85,1.7-2.06,3.01-3.65,3.93s-3.45,1.39-5.61,1.39
		c-1.62,0-3.08-0.26-4.37-0.78c-1.29-0.52-2.4-1.27-3.33-2.26s-1.63-2.17-2.11-3.56c-0.48-1.39-0.72-2.95-0.72-4.69
		c0-2.28,0.42-4.25,1.27-5.93c0.85-1.68,2.06-2.97,3.65-3.88c1.58-0.91,3.45-1.36,5.61-1.36c1.62,0,3.08,0.26,4.37,0.78
		c1.29,0.52,2.4,1.27,3.33,2.26c0.93,0.98,1.63,2.16,2.11,3.53c0.48,1.37,0.72,2.9,0.72,4.6C95.09,73.87,94.66,75.85,93.81,77.55z"
		/>
	<polygon points="137.09,72.86 119.74,51.05 111.63,51.05 111.63,92.25 123.21,92.25 123.21,71.16 139.99,92.25 148.67,92.25 
		148.67,51.05 137.09,51.05 	"/>
	<path d="M167.04,60.19c0.71-0.39,1.67-0.58,2.86-0.58c1.5,0,2.89,0.3,4.17,0.9c1.27,0.6,2.55,1.51,3.82,2.75l7.29-7.23
		c-1.74-1.81-3.93-3.21-6.57-4.2c-2.64-0.98-5.51-1.48-8.59-1.48c-3.12,0-5.84,0.51-8.16,1.53c-2.31,1.02-4.11,2.5-5.38,4.43
		c-1.27,1.93-1.91,4.22-1.91,6.89c0,2.04,0.35,3.77,1.04,5.18c0.69,1.41,1.61,2.58,2.75,3.53c1.14,0.95,2.38,1.75,3.73,2.4
		c1.35,0.66,2.71,1.21,4.08,1.68c1.37,0.46,2.62,0.92,3.76,1.36c1.14,0.44,2.05,0.95,2.75,1.5c0.69,0.56,1.04,1.26,1.04,2.11
		c0,0.85-0.41,1.51-1.22,2c-0.81,0.48-2.01,0.72-3.59,0.72c-1.89,0-3.67-0.38-5.32-1.13c-1.66-0.75-3.24-1.84-4.75-3.27l-7.23,7.23
		c2.2,2.24,4.6,3.87,7.2,4.89c2.6,1.02,5.66,1.53,9.17,1.53c5.44,0,9.65-1.15,12.64-3.44c2.99-2.3,4.48-5.54,4.48-9.75
		c0-2.08-0.35-3.86-1.04-5.32c-0.69-1.47-1.61-2.69-2.75-3.68c-1.14-0.98-2.38-1.79-3.73-2.43c-1.35-0.64-2.71-1.18-4.08-1.65
		c-1.37-0.46-2.62-0.91-3.76-1.33c-1.14-0.42-2.05-0.9-2.75-1.42s-1.04-1.18-1.04-2C165.97,61.16,166.33,60.58,167.04,60.19z"/>
	<polygon points="198.49,51.05 186.16,51.05 186.16,60.89 198.49,60.89 198.49,92.25 210.06,92.25 210.06,60.89 222.44,60.89 
		222.44,51.05 210.06,51.05 	"/>
	<polygon points="238.36,75.93 256.12,75.93 256.12,66.56 238.36,66.56 238.36,60.65 257.91,60.65 257.91,51.05 238.36,51.05 
		236.16,51.05 226.78,51.05 226.78,92.25 236.16,92.25 238.36,92.25 258.26,92.25 258.26,82.64 238.36,82.64 	"/>
	<path d="M285.98,92.25h13.14l-12.07-17.18c0.8-0.23,1.57-0.49,2.29-0.82c2.24-1.04,3.98-2.49,5.24-4.34
		c1.25-1.85,1.88-4.01,1.88-6.48s-0.62-4.63-1.85-6.48c-1.23-1.85-2.93-3.3-5.09-4.34c-2.16-1.04-4.67-1.56-7.52-1.56h-6.65h-2.2
		h-9.37v41.2h11.57V75.81h0.16L285.98,92.25z M280.13,59.38c1.58,0,2.79,0.39,3.62,1.16c0.83,0.77,1.24,1.79,1.24,3.07
		c0,1.27-0.42,2.29-1.24,3.07c-0.83,0.77-2.04,1.16-3.62,1.16h-4.8v-8.45H280.13z"/>
</g>
</svg>
