<?xml version="1.0" encoding="utf-8"?>
<!-- Generator: Adobe Illustrator 16.0.0, SVG Export Plug-In . SVG Version: 6.00 Build 0)  -->
<!DOCTYPE svg PUBLIC "-//W3C//DTD SVG 1.1//EN" "http://www.w3.org/Graphics/SVG/1.1/DTD/svg11.dtd">
<svg version="1.1" id="Layer_1" xmlns="http://www.w3.org/2000/svg" xmlns:xlink="http://www.w3.org/1999/xlink" x="0px" y="0px"
	 width="240px" height="20px" viewBox="0 0 240 20" enable-background="new 0 0 240 20" xml:space="preserve">
<path fill="none" stroke="#6CC4A9" stroke-width="3" stroke-linecap="round" stroke-miterlimit="10" d="M3.17,17.24
	c1.8-0.21,4.29-1.12,6.44-1.36c8.36-0.93,16.94-0.78,25.36-0.63c6.4,0.11,12.16-0.34,18.47-1.02c3.75-0.4,7.46,0.23,11.19,0.13
	c3.62-0.09,7.2-0.89,10.69-1.58c6.52-1.29,13.15-2.54,19.85-3.16c14.52-1.34,28.81,0.06,43.38-0.05c9.23-0.06,18.41-0.61,27.37-2.37
	c3.5-0.69,7.1-1.79,10.71-2.12c1.48-0.14,3.02,0.03,4.51-0.04c7.22-0.34,14.29-1.94,21.51-2.22c4.93-0.19,10.25,0.18,15.16,0.6
	c4.63,0.39,9.07,1.49,13.66,1.97c1.1,0.11,3.51,0.22,4.04,0.42"/>
</svg>
